<svg aria-hidden="true" style="position: absolute; width: 0; height: 0; overflow: hidden;" version="1.1" xmlns="http://www.w3.org/2000/svg" xmlns:xlink="http://www.w3.org/1999/xlink">
<defs>
<symbol id="icon-plus" viewBox="0 0 32 32">
<path fill="#fff" style="fill: var(--color4, #fff)" d="M13.333 29.333c0 1.473 1.194 2.667 2.667 2.667s2.667-1.194 2.667-2.667v0-10.667h10.667c1.473 0 2.667-1.194 2.667-2.667s-1.194-2.667-2.667-2.667v0h-10.667v-10.667c0-1.473-1.194-2.667-2.667-2.667s-2.667 1.194-2.667 2.667v0 10.667h-10.667c-1.473 0-2.667 1.194-2.667 2.667s1.194 2.667 2.667 2.667v0h10.667v10.667z"></path>
</symbol>
<symbol id="icon-minus" viewBox="0 0 192 32">
<path fill="#d9d9d9" style="fill: var(--color5, #d9d9d9)" d="M16 0h160c8.837 0 16 7.163 16 16s-7.163 16-16 16h-160c-8.837 0-16-7.163-16-16s7.163-16 16-16z"></path>
</symbol>
<symbol id="icon-media-6" viewBox="0 0 32 32">
<path fill="#b6c3cb" style="fill: var(--color6, #b6c3cb)" d="M5.333 0h21.333c2.946 0 5.333 2.388 5.333 5.333v21.333c0 2.946-2.388 5.333-5.333 5.333h-21.333c-2.946 0-5.333-2.388-5.333-5.333v-21.333c0-2.946 2.388-5.333 5.333-5.333z"></path>
<path fill="#1c272d" style="fill: var(--color7, #1c272d)" d="M10.667 24v-16l13.333 8-13.333 8z"></path>
</symbol>
<symbol id="icon-media-5" viewBox="0 0 32 32">
<path fill="#b6c3cb" style="fill: var(--color6, #b6c3cb)" d="M5.333 0h21.333c2.946 0 5.333 2.388 5.333 5.333v21.333c0 2.946-2.388 5.333-5.333 5.333h-21.333c-2.946 0-5.333-2.388-5.333-5.333v-21.333c0-2.946 2.388-5.333 5.333-5.333z"></path>
<path fill="#1c272d" style="fill: var(--color7, #1c272d)" d="M10.016 12.097h-4.163v14.569h4.163v-14.569zM10.536 7.935c0-1.437-1.165-2.601-2.601-2.601s-2.601 1.165-2.601 2.601v0c0 1.437 1.165 2.601 2.601 2.601s2.601-1.165 2.601-2.601v0zM26.667 18.947c0-4.579-1.52-7.264-5.952-7.264-0 0-0 0-0.001 0-1.943 0-3.656 0.982-4.671 2.478l-0.013 0.020v-2.080h-3.933v14.567h4.163v-6.805c-0.014-0.12-0.022-0.258-0.022-0.399 0-1.949 1.54-3.539 3.47-3.618l0.007-0c2.415 0 2.789 2.373 2.789 4.017v6.805h4.163v-7.721z"></path>
</symbol>
<symbol id="icon-media-4" viewBox="0 0 32 32">
<path fill="#b6c3cb" style="fill: var(--color6, #b6c3cb)" d="M5.333 0h21.333c2.946 0 5.333 2.388 5.333 5.333v21.333c0 2.946-2.388 5.333-5.333 5.333h-21.333c-2.946 0-5.333-2.388-5.333-5.333v-21.333c0-2.946 2.388-5.333 5.333-5.333z"></path>
<path fill="#1c272d" style="fill: var(--color7, #1c272d)" d="M21.987 32v-12.164h3.933l0.587-4.74h-4.52v-3.027c0-1.373 0.368-2.308 2.263-2.308l2.417-0.001v-4.24c-1.022-0.119-2.206-0.187-3.405-0.187-0.041 0-0.082 0-0.122 0l0.006-0c-3.485 0-5.871 2.209-5.871 6.267v3.496h-3.941v4.74h3.941v12.164h4.713z"></path>
</symbol>
<symbol id="icon-media-3" viewBox="0 0 32 32">
<path fill="#b6c3cb" style="fill: var(--color6, #b6c3cb)" d="M5.333 0h21.333c2.946 0 5.333 2.388 5.333 5.333v21.333c0 2.946-2.388 5.333-5.333 5.333h-21.333c-2.946 0-5.333-2.388-5.333-5.333v-21.333c0-2.946 2.388-5.333 5.333-5.333z"></path>
<path fill="#1c272d" style="fill: var(--color7, #1c272d)" d="M26.663 10.052c-0.732 0.334-1.582 0.576-2.472 0.685l-0.042 0.004c0.905-0.548 1.586-1.389 1.916-2.39l0.009-0.031c-0.8 0.483-1.731 0.851-2.722 1.052l-0.056 0.009c-0.801-0.856-1.937-1.389-3.198-1.389-2.417 0-4.376 1.959-4.376 4.376 0 0.356 0.043 0.702 0.123 1.034l-0.006-0.030c-3.645-0.188-6.851-1.919-9.001-4.548l-0.018-0.022c-0.374 0.631-0.595 1.391-0.595 2.202 0 1.512 0.767 2.845 1.934 3.63l0.016 0.010c-0.731-0.024-1.411-0.224-2.004-0.559l0.022 0.011v0.055c0 2.11 1.494 3.872 3.481 4.286l0.028 0.005c-0.345 0.097-0.74 0.153-1.149 0.153-0.292 0-0.578-0.029-0.855-0.083l0.028 0.005c0.575 1.753 2.181 3.003 4.084 3.040l0.004 0c-1.478 1.169-3.368 1.876-5.424 1.876-0.372 0-0.738-0.023-1.098-0.068l0.043 0.004c1.892 1.232 4.208 1.965 6.695 1.965 0.004 0 0.008 0 0.012 0h-0.001c8.049 0 12.451-6.667 12.451-12.451 0-0.189-0.004-0.377-0.013-0.565 0.861-0.627 1.586-1.378 2.165-2.235l0.020-0.031z"></path>
</symbol>
<symbol id="icon-media-2" viewBox="0 0 32 32">
<path fill="#b6c3cb" style="fill: var(--color6, #b6c3cb)" d="M5.333 0h21.333c2.946 0 5.333 2.388 5.333 5.333v21.333c0 2.946-2.388 5.333-5.333 5.333h-21.333c-2.946 0-5.333-2.388-5.333-5.333v-21.333c0-2.946 2.388-5.333 5.333-5.333z"></path>
<path fill="#1c272d" style="fill: var(--color7, #1c272d)" d="M7.863 11.436c0.003-0.025 0.004-0.054 0.004-0.084 0-0.242-0.105-0.459-0.272-0.609l-0.001-0.001-1.992-2.387v-0.356h6.184l4.781 10.427 4.203-10.427h5.896v0.356l-1.703 1.624c-0.12 0.091-0.196 0.233-0.196 0.394 0 0.029 0.003 0.057 0.007 0.085l-0-0.003v11.931c-0.004 0.024-0.007 0.052-0.007 0.081 0 0.16 0.076 0.303 0.195 0.393l0.001 0.001 1.663 1.624v0.357h-8.365v-0.357l1.723-1.663c0.169-0.169 0.169-0.219 0.169-0.476v-9.644l-4.791 12.1h-0.648l-5.577-12.1v8.109c-0.006 0.045-0.010 0.097-0.010 0.15 0 0.304 0.122 0.58 0.32 0.781l-0-0 2.24 2.703v0.357h-6.353v-0.357l2.24-2.703c0.188-0.194 0.305-0.458 0.305-0.75 0-0.064-0.006-0.126-0.016-0.187l0.001 0.006v-9.376z"></path>
</symbol>
<symbol id="icon-media-1" viewBox="0 0 32 32">
<path fill="#b6c3cb" style="fill: var(--color6, #b6c3cb)" d="M5.333 0h21.333c2.946 0 5.333 2.388 5.333 5.333v21.333c0 2.946-2.388 5.333-5.333 5.333h-21.333c-2.946 0-5.333-2.388-5.333-5.333v-21.333c0-2.946 2.388-5.333 5.333-5.333z"></path>
<path fill="#1c272d" style="fill: var(--color7, #1c272d)" d="M26.667 16.14c0 0.010 0 0.023 0 0.035 0 0.673-0.292 1.278-0.756 1.695l-0.002 0.002c-0.161 0.147-0.344 0.269-0.54 0.365 0.009 0.1 0.013 0.217 0.013 0.334 0 0.065-0.002 0.13-0.004 0.195l0-0.009c-0.002 0.067-0.006 0.128-0.010 0.188l0.001-0.014c0 3.533-4.18 6.403-9.337 6.403-5.156 0-9.336-2.869-9.336-6.403-0.009-0.103-0.014-0.224-0.014-0.345 0-0.062 0.001-0.123 0.004-0.184l-0 0.009c0.003-0.059 0.005-0.116 0.011-0.173-0.317-0.145-0.584-0.347-0.8-0.595l-0.002-0.003c-0.347-0.4-0.559-0.925-0.559-1.501 0-0.127 0.010-0.252 0.030-0.374l-0.002 0.013c0.053-0.329 0.18-0.643 0.369-0.92 0.432-0.617 1.14-1.016 1.94-1.016 0.264 0 0.518 0.043 0.755 0.123l-0.017-0.005c0.321 0.105 0.616 0.279 0.863 0.507 1.757-1.187 3.914-1.907 6.238-1.94l0.008-0 1.185-5.472c0.028-0.132 0.107-0.241 0.214-0.309l0.002-0.001c0.077-0.049 0.17-0.078 0.27-0.078 0.037 0 0.074 0.004 0.109 0.012l-0.003-0.001 3.924 0.772c0.287-0.473 0.799-0.784 1.384-0.784 0.207 0 0.405 0.039 0.587 0.11l-0.011-0.004c0.735 0.28 1.155 1.041 0.991 1.8-0.165 0.719-0.8 1.248-1.559 1.248-0.032 0-0.064-0.001-0.095-0.003l0.004 0c-0.784-0.036-1.417-0.634-1.509-1.398l-0.001-0.008-3.427-0.709-1.041 4.92c2.304 0.051 4.431 0.768 6.206 1.966l-0.041-0.026c0.423-0.397 0.994-0.641 1.621-0.641 0.315 0 0.616 0.061 0.891 0.173l-0.016-0.006c0.419 0.167 0.779 0.449 1.037 0.813 0.26 0.364 0.407 0.793 0.423 1.237zM10.773 18.32c0.166 0.39 0.474 0.693 0.856 0.85l0.011 0.004c0.195 0.080 0.403 0.12 0.613 0.12 0.647 0 1.231-0.384 1.48-0.973 0.077-0.178 0.121-0.385 0.121-0.603 0-0.437-0.18-0.832-0.469-1.115l-0-0c-0.292-0.286-0.692-0.462-1.133-0.462-0.221 0-0.432 0.044-0.624 0.125l0.011-0.004c-0.581 0.239-0.984 0.8-0.987 1.456v0c0 0.208 0.040 0.413 0.12 0.604zM19.947 22.107c0.083-0.077 0.135-0.187 0.135-0.309 0-0.233-0.189-0.423-0.423-0.423-0.003 0-0.007 0-0.010 0h0c-0.12 0.001-0.231 0.043-0.319 0.112l0.001-0.001c-0.691 0.494-1.528 0.829-2.436 0.934l-0.024 0.002c-0.181 0.022-0.391 0.034-0.603 0.034-0.1 0-0.2-0.003-0.299-0.008l0.014 0.001c-0.069 0.003-0.151 0.005-0.232 0.005-1.163 0-2.239-0.374-3.114-1.009l0.015 0.011c-0.074-0.061-0.17-0.097-0.275-0.097-0.119 0-0.226 0.047-0.305 0.124l0-0c-0.078 0.077-0.126 0.184-0.126 0.302 0 0.103 0.037 0.197 0.098 0.271l-0.001-0.001c0.811 0.608 1.798 1.024 2.871 1.165l0.031 0.003c0.349 0.045 0.701 0.060 1.053 0.047 0.074 0.003 0.161 0.005 0.248 0.005 1.026 0 1.994-0.247 2.849-0.684l-0.035 0.016c0.315-0.159 0.613-0.343 0.895-0.552l-0.011 0.053zM19.652 19.42c0.004 0 0.009 0 0.014 0 0.45 0 0.858-0.183 1.152-0.479l0-0c0.279-0.284 0.452-0.674 0.452-1.104 0-0.020-0-0.040-0.001-0.060l0 0.003c0-0.639-0.391-1.213-0.988-1.457-0.181-0.076-0.392-0.12-0.613-0.12-0.442 0-0.842 0.177-1.134 0.463l0-0c-0.289 0.283-0.468 0.678-0.468 1.114 0 0.218 0.045 0.425 0.125 0.613l-0.004-0.010c0.248 0.589 0.832 0.973 1.48 0.973l-0.016 0.064z"></path>
</symbol>
<symbol id="icon-logo" viewBox="0 0 112 32">
<path fill="#5ed9ff" style="fill: var(--color3, #5ed9ff)" d="M110.015 12.529c-0.045 0.003-0.098 0.005-0.152 0.005-0.291 0-0.569-0.055-0.824-0.156l0.015 0.005c-0.057-0.027-0.123-0.045-0.193-0.052l-0.003-0c-0.060-0.002-0.13-0.003-0.201-0.003-0.054 0-0.107 0.001-0.161 0.002l0.008-0c-0.052 0.001-0.113 0.001-0.175 0.001h-0.439c-0.147-1.91-0.906-3.62-2.080-4.957l0.008 0.010 0.643-0.643c0.095-0.095 0.153-0.207 0.212-0.322 0.034-0.066 0.068-0.134 0.111-0.199 0.169-0.27 0.395-0.498 0.664-0.669l0.194-0.122h0.001v-0.001c0.182-0.114 0.363-0.228 0.533-0.358 0.216-0.144 0.385-0.348 0.488-0.586 0.085-0.26-0.035-0.496-0.215-0.683-0.143-0.162-0.351-0.263-0.583-0.263-0.024 0-0.047 0.001-0.071 0.003l0.003-0c-0.232 0.042-0.431 0.159-0.577 0.323l-0.001 0.001c-0.193 0.196-0.334 0.427-0.476 0.658-0.113 0.183-0.225 0.367-0.363 0.532-0.213 0.242-0.473 0.436-0.767 0.57l-0.014 0.006c-0.066 0.026-0.123 0.060-0.174 0.102l0.001-0.001h-0.001c-0.13 0.13-0.26 0.26-0.39 0.397l-0.246 0.246c-0.81-0.663-1.764-1.187-2.804-1.515l-0.060-0.016c-0.583-0.206-1.262-0.358-1.965-0.427l-0.036-0.003v-1.018c0.001-0.013 0.002-0.028 0.002-0.044s-0.001-0.031-0.002-0.046l0 0.002c-0.011-0.043-0.025-0.081-0.042-0.117l0.002 0.004c-0.011-0.026-0.023-0.053-0.031-0.080-0.048-0.145-0.087-0.317-0.11-0.494l-0.001-0.014c-0.044-0.359 0.032-0.699 0.109-1.041 0.045-0.201 0.090-0.403 0.111-0.609 0.023-0.225 0.030-0.479-0.093-0.678s-0.375-0.271-0.612-0.277c-0.005-0.001-0.011-0.001-0.016-0.001s-0.011 0-0.017 0.001l0.001-0c-0.248-0.013-0.491 0.071-0.679 0.233-0.128 0.146-0.196 0.334-0.189 0.528-0.010 0.309 0.061 0.607 0.132 0.906 0.040 0.169 0.080 0.336 0.105 0.506 0.036 0.328 0 0.659-0.105 0.971-0.036 0.085-0.063 0.171-0.083 0.261-0.005 0.076-0.008 0.164-0.008 0.253s0.003 0.177 0.009 0.265l-0.001-0.012v0.521c-1.841 0.181-3.486 0.904-4.804 2.006l0.014-0.011-0.163-0.163-0.487-0.486c-0.022-0.027-0.045-0.050-0.070-0.072l-0.001-0.001c-0.042-0.023-0.094-0.047-0.148-0.068l-0.010-0.003c-0.175-0.088-0.326-0.184-0.466-0.293l0.006 0.005c-0.292-0.225-0.482-0.523-0.673-0.824-0.131-0.215-0.263-0.4-0.407-0.574l0.006 0.008c-0.149-0.229-0.403-0.378-0.693-0.378-0.12 0-0.234 0.026-0.337 0.072l0.005-0.002c-0.122 0.055-0.225 0.135-0.305 0.233l-0.001 0.002c-0.639 0.657 0.13 1.145 0.759 1.545 0.211 0.134 0.406 0.257 0.528 0.374 0.233 0.243 0.425 0.523 0.566 0.83 0.015 0.032 0.036 0.061 0.061 0.085 0.097 0.1 0.196 0.199 0.294 0.297l0.466 0.466c-0.012 0.013-0.019 0.022-0.027 0.030l0.004-0.004-0.021 0.023-0.059 0.067c-1.059 1.291-1.747 2.923-1.88 4.71l-0.002 0.028h-0.95c-0.009-0.001-0.019-0.001-0.029-0.001-0.055 0-0.108 0.008-0.158 0.023l0.004-0.001c-0.205 0.079-0.444 0.139-0.692 0.17l-0.015 0.001c-0.323 0.031-0.638-0.043-0.953-0.117-0.187-0.051-0.411-0.093-0.641-0.117l-0.019-0.002c-0.046-0.006-0.099-0.009-0.153-0.009-0.209 0-0.405 0.052-0.578 0.143l0.007-0.003c-0.197 0.127-0.325 0.345-0.325 0.593 0 0.016 0.001 0.032 0.002 0.047l-0-0.002c0.013 0.973 1.015 0.75 1.762 0.585 0.18-0.040 0.345-0.077 0.479-0.092 0.316-0.025 0.635 0.020 0.933 0.13 0.070 0.031 0.143 0.053 0.218 0.066 0.119 0.009 0.239 0.006 0.358 0.004 0.060-0.002 0.119-0.004 0.177-0.004h0.364c3.535-0.368 6.687-0.142 8.050 1.415 1.104 1.262 0.301 3.914-0.801 6.283 0.265 0.047 0.533 0.081 0.801 0.104v1.116c-0.001 0.014-0.002 0.030-0.002 0.047s0.001 0.033 0.002 0.049l-0-0.002c0.017 0.057 0.038 0.112 0.063 0.166 0.052 0.158 0.090 0.32 0.113 0.486 0.013 0.091 0.020 0.197 0.020 0.304 0 0.2-0.026 0.394-0.074 0.579l0.004-0.016c-0.069 0.27-0.123 0.542-0.161 0.817-0.024 0.23-0.032 0.494 0.094 0.698 0.138 0.224 0.398 0.28 0.651 0.284 0.248 0.012 0.491-0.073 0.678-0.238 0.127-0.147 0.194-0.337 0.187-0.531 0.009-0.309-0.061-0.607-0.132-0.905-0.040-0.169-0.080-0.337-0.105-0.507-0.035-0.327 0.001-0.658 0.107-0.969 0.032-0.073 0.060-0.16 0.080-0.25l0.002-0.010c0.004-0.076 0.007-0.164 0.007-0.253s-0.002-0.177-0.007-0.265l0.001 0.012v-0.62c0.721-0.066 1.384-0.208 2.016-0.42l-0.062 0.018c1.088-0.334 2.033-0.842 2.853-1.499l-0.017 0.013 0.651 0.651c0.023 0.027 0.048 0.052 0.074 0.075l0.001 0.001c0.041 0.026 0.085 0.047 0.13 0.065 0.145 0.069 0.284 0.151 0.414 0.246 0.252 0.185 0.464 0.42 0.624 0.688 0.149 0.252 0.313 0.495 0.493 0.725 0.146 0.203 0.358 0.347 0.599 0.407 0.028 0.003 0.060 0.005 0.092 0.005 0.255 0 0.485-0.11 0.645-0.285l0.001-0.001c0.66-0.681-0.1-1.169-0.733-1.576-0.208-0.133-0.401-0.257-0.528-0.377-0.237-0.228-0.43-0.501-0.566-0.804l-0.007-0.016c-0.017-0.041-0.039-0.075-0.066-0.106l0 0c-0.087-0.096-0.181-0.187-0.274-0.277-0.049-0.047-0.094-0.091-0.139-0.136l-0.328-0.328c1.162-1.309 1.927-2.995 2.092-4.853l0.002-0.032h0.816c0.008 0.001 0.018 0.001 0.028 0.001 0.056 0 0.109-0.009 0.159-0.026l-0.004 0.001c0.242-0.092 0.495-0.15 0.752-0.175 0.304-0.021 0.6 0.050 0.897 0.121 0.231 0.055 0.462 0.11 0.698 0.123 0.038 0.004 0.082 0.006 0.127 0.006 0.215 0 0.418-0.054 0.595-0.149l-0.007 0.003c0.229-0.139 0.304-0.377 0.307-0.633-0.022-0.954-1.035-0.727-1.773-0.562-0.183 0.041-0.35 0.078-0.48 0.092zM96.171 12.316h-2.734c0.122-1.082 0.515-2.054 1.109-2.869l-0.012 0.017 1.993 1.993c-0.151 0.247-0.273 0.533-0.351 0.837l-0.005 0.022zM98.384 9.284v0.768c-0.284 0.073-0.557 0.188-0.807 0.341l-2.028-2.027c0.329-0.277 0.698-0.526 1.094-0.731l0.033-0.016c0.496-0.243 1.071-0.423 1.677-0.51l0.031-0.004v2.178zM101.773 11.418l2.010-2.003c0.587 0.763 1.001 1.689 1.166 2.698l0.005 0.035c0.006 0.041 0.011 0.083 0.016 0.125l0.007 0.056h-2.837c-0.078-0.345-0.204-0.649-0.374-0.925l0.007 0.013zM99.907 7.105c1.052 0.149 2.044 0.586 2.864 1.263l-1.543 1.543-0.483 0.486c-0.24-0.146-0.519-0.263-0.814-0.337l-0.021-0.004-0.004-2.95zM99.907 18.842v-2.951c0.282-0.074 0.528-0.178 0.756-0.312l-0.014 0.008 2.062 2.062c-0.749 0.59-1.663 1.005-2.661 1.168l-0.034 0.005c-0.032 0.010-0.069 0.014-0.105 0.018l-0.004 0.003zM102.347 15.147l-0.606-0.606c0.164-0.257 0.289-0.537 0.371-0.831h2.879c-0.146 1.1-0.576 2.080-1.215 2.887l0.009-0.012-1.439-1.439zM7.076 15.495c0-0.142-0.13-0.27-0.383-0.391s-0.644-0.174-1.171-0.174c-0.027-0.001-0.059-0.001-0.091-0.001-0.273 0-0.54 0.028-0.797 0.082l0.025-0.004c-0.183 0.037-0.344 0.109-0.485 0.21l0.004-0.003c-0.097 0.068-0.17 0.164-0.207 0.276l-0.001 0.004c-0.029 0.093-0.046 0.2-0.046 0.311 0 0.001 0 0.002 0 0.003v-0c0.006 0.236 0.124 0.444 0.304 0.572l0.002 0.002c0.234 0.18 0.502 0.336 0.788 0.457l0.024 0.009c0.336 0.146 0.718 0.292 1.147 0.439s0.868 0.309 1.319 0.489c0.45 0.18 0.89 0.386 1.318 0.617 0.436 0.237 0.813 0.509 1.151 0.822l-0.004-0.003c0.336 0.313 0.612 0.685 0.811 1.098 0.212 0.455 0.316 0.953 0.306 1.454 0 0.706-0.136 1.3-0.408 1.781-0.277 0.483-0.663 0.874-1.125 1.151l-0.014 0.008c-0.5 0.295-1.083 0.514-1.704 0.624l-0.032 0.005c-0.725 0.129-1.459 0.192-2.195 0.186-0.464 0-0.928-0.036-1.387-0.105-0.5-0.076-0.94-0.181-1.366-0.319l0.060 0.017c-0.446-0.144-0.828-0.311-1.19-0.51l0.035 0.018c-0.352-0.19-0.655-0.409-0.927-0.661l0.003 0.003c-0.246-0.229-0.451-0.497-0.606-0.795l-0.008-0.016c-0.141-0.272-0.223-0.594-0.223-0.936 0-0.005 0-0.011 0-0.016v0.001c-0-0.011-0-0.024-0-0.037 0-0.229 0.045-0.448 0.125-0.649l-0.004 0.012c0.073-0.178 0.182-0.34 0.321-0.473 0.132-0.122 0.288-0.217 0.459-0.277 0.174-0.060 0.357-0.091 0.541-0.090 0.233 0.001 0.465 0.046 0.683 0.13 0.227 0.085 0.435 0.214 0.613 0.379 0.377 0.35 0.611 0.847 0.611 1.4 0 0.015-0 0.031-0.001 0.046l0-0.002c0.007 0.095 0.047 0.18 0.109 0.244l-0-0c0.090 0.098 0.198 0.179 0.318 0.238 0.166 0.082 0.341 0.144 0.521 0.185 0.233 0.054 0.472 0.080 0.712 0.077 0.299 0.006 0.599-0.018 0.893-0.073 0.181-0.032 0.355-0.097 0.512-0.192 0.104-0.064 0.184-0.158 0.229-0.27l0.001-0.004c0.035-0.097 0.053-0.199 0.053-0.302 0-0.13-0.094-0.237-0.28-0.334-0.204-0.104-0.448-0.203-0.7-0.282l-0.035-0.010c-0.302-0.099-0.651-0.203-1.042-0.315s-0.789-0.243-1.193-0.397c-0.473-0.181-0.865-0.366-1.243-0.575l0.050 0.026c-0.398-0.216-0.741-0.472-1.042-0.769l0.001 0.001c-0.306-0.304-0.555-0.661-0.735-1.054-0.178-0.392-0.282-0.849-0.282-1.331 0-0.026 0-0.051 0.001-0.077l-0 0.004c-0.007-0.484 0.057-0.966 0.192-1.429 0.119-0.399 0.304-0.775 0.546-1.114 0.236-0.323 0.515-0.598 0.832-0.822l0.011-0.008c0.339-0.235 0.708-0.427 1.095-0.569 0.42-0.153 0.853-0.262 1.296-0.326 0.426-0.065 0.918-0.102 1.418-0.102 0.009 0 0.017 0 0.026 0h-0.001c0.049-0.001 0.107-0.002 0.165-0.002 0.753 0 1.482 0.098 2.177 0.283l-0.059-0.013c0.548 0.142 1.066 0.377 1.534 0.693 0.357 0.242 0.652 0.565 0.86 0.944 0.169 0.311 0.262 0.658 0.268 1.011 0.007 0.27-0.058 0.537-0.188 0.772-0.123 0.213-0.292 0.397-0.492 0.538-0.209 0.145-0.443 0.25-0.69 0.31-0.238 0.063-0.511 0.099-0.792 0.099-0.258 0-0.509-0.030-0.749-0.087l0.022 0.004c-0.241-0.053-0.454-0.139-0.647-0.255l0.010 0.005c-0.178-0.105-0.327-0.241-0.444-0.401l-0.003-0.004c-0.107-0.147-0.171-0.332-0.171-0.531 0-0.006 0-0.013 0-0.019l-0 0.001c-0.001-0.011-0.001-0.024-0.001-0.038 0-0.115 0.039-0.221 0.104-0.305l-0.001 0.001c0.067-0.073 0.144-0.137 0.228-0.188 0.084-0.050 0.159-0.101 0.228-0.151 0.064-0.048 0.104-0.124 0.104-0.209 0-0.007-0-0.013-0.001-0.020l0 0.001zM18.202 19.804h3.421l-0.005 2.31c0.001 0.019 0.002 0.041 0.002 0.064 0 0.169-0.034 0.331-0.096 0.478l0.003-0.008c-0.052 0.114-0.127 0.21-0.221 0.283l-0.002 0.001c-0.087 0.063-0.187 0.107-0.292 0.13-0.107 0.025-0.203 0.053-0.292 0.083-0.087 0.030-0.162 0.074-0.225 0.131l0.001-0.001c-0.057 0.060-0.092 0.141-0.092 0.23 0 0.011 0 0.021 0.001 0.031l-0-0.001c-0.007 0.289 0.079 0.573 0.246 0.81 0.189 0.247 0.441 0.439 0.728 0.558 0.381 0.16 0.782 0.267 1.193 0.317 0.543 0.073 1.089 0.107 1.636 0.103 0.024 0 0.053 0 0.081 0 0.54 0 1.072-0.038 1.592-0.11l-0.060 0.007c0.439-0.056 0.838-0.167 1.211-0.328l-0.029 0.011c0.293-0.124 0.536-0.314 0.72-0.553l0.003-0.004c0.166-0.236 0.253-0.521 0.246-0.81 0.001-0.009 0.001-0.019 0.001-0.030 0-0.090-0.036-0.171-0.095-0.23v0c-0.066-0.056-0.145-0.101-0.231-0.129l-0.005-0.001c-0.076-0.026-0.179-0.055-0.283-0.079l-0.023-0.004c-0.117-0.025-0.22-0.070-0.31-0.132l0.003 0.002c-0.101-0.074-0.18-0.171-0.233-0.283l-0.002-0.005c-0.071-0.167-0.104-0.348-0.095-0.53v-5.682c-0.001-0.018-0.002-0.040-0.002-0.061 0-0.166 0.035-0.325 0.099-0.468l-0.003 0.007c0.053-0.112 0.134-0.208 0.235-0.279 0.092-0.063 0.198-0.107 0.307-0.13 0.111-0.026 0.213-0.053 0.306-0.080 0.091-0.026 0.169-0.068 0.237-0.122l-0.001 0.001c0.059-0.059 0.095-0.14 0.095-0.23 0-0.011-0.001-0.021-0.002-0.032l0 0.001c0.002-0.626-0.32-1.079-0.969-1.359-0.648-0.28-1.58-0.42-2.795-0.42-1.234 0-2.175 0.141-2.825 0.422s-0.974 0.733-0.974 1.359c-0.001 0.008-0.001 0.018-0.001 0.028 0 0.090 0.035 0.172 0.093 0.232l-0-0c0.065 0.055 0.142 0.096 0.224 0.121 0.088 0.028 0.185 0.054 0.292 0.080 0.105 0.024 0.204 0.068 0.292 0.13 0.097 0.073 0.174 0.169 0.223 0.28 0.069 0.165 0.1 0.343 0.091 0.521v1.904h-3.406v-1.904c-0.009-0.178 0.023-0.356 0.092-0.521 0.050-0.11 0.126-0.206 0.223-0.279 0.087-0.063 0.186-0.107 0.292-0.131 0.107-0.026 0.204-0.052 0.292-0.079 0.086-0.027 0.161-0.068 0.225-0.122l-0.001 0.001c0.057-0.060 0.092-0.141 0.092-0.23 0-0.011-0.001-0.022-0.002-0.032l0 0.001c0.007-0.289-0.078-0.572-0.246-0.807-0.189-0.241-0.434-0.43-0.716-0.547l-0.012-0.004c-0.347-0.151-0.75-0.263-1.171-0.317l-0.022-0.002c-0.463-0.065-0.999-0.102-1.543-0.102-0.033 0-0.066 0-0.098 0l0.005-0c-0.026-0-0.057-0-0.088-0-0.529 0-1.049 0.037-1.558 0.109l0.059-0.007c-0.433 0.057-0.826 0.169-1.193 0.33l0.028-0.011c-0.284 0.118-0.532 0.309-0.72 0.552-0.167 0.235-0.254 0.519-0.246 0.807-0.001 0.009-0.001 0.020-0.001 0.031 0 0.089 0.035 0.17 0.093 0.229l-0-0c0.063 0.053 0.137 0.094 0.218 0.12l0.004 0.001c0.089 0.028 0.185 0.054 0.288 0.080 0.104 0.024 0.201 0.068 0.288 0.13 0.097 0.073 0.174 0.17 0.223 0.28 0.069 0.165 0.1 0.343 0.092 0.521v5.713c0.009 0.178-0.022 0.356-0.092 0.521-0.050 0.11-0.128 0.205-0.223 0.277-0.087 0.061-0.185 0.105-0.288 0.13-0.125 0.029-0.221 0.057-0.316 0.087l0.028-0.008c-0.086 0.025-0.161 0.067-0.223 0.122l0.001-0.001c-0.057 0.059-0.092 0.14-0.092 0.229 0 0.011 0.001 0.022 0.002 0.032l-0-0.001c-0.007 0.289 0.079 0.573 0.246 0.81 0.187 0.245 0.435 0.438 0.72 0.558 0.339 0.149 0.732 0.261 1.143 0.315l0.022 0.002c0.526 0.073 1.057 0.107 1.587 0.103 1.232 0.001 2.173-0.139 2.825-0.42s0.978-0.737 0.978-1.367c0.001-0.009 0.002-0.021 0.002-0.032 0-0.089-0.035-0.17-0.093-0.229l0 0c-0.063-0.056-0.137-0.101-0.219-0.129l-0.005-0.001c-0.075-0.027-0.172-0.056-0.272-0.079l-0.020-0.004c-0.112-0.025-0.211-0.070-0.297-0.132l0.003 0.002c-0.098-0.076-0.177-0.172-0.23-0.283l-0.002-0.005c-0.071-0.167-0.103-0.348-0.095-0.53v-2.31zM38.526 16.434c0.119-0.063 0.215-0.158 0.278-0.272l0.002-0.003c0.034-0.067 0.056-0.146 0.061-0.229l0-0.002c-0.005-0.096-0.055-0.18-0.129-0.23l-0.001-0.001c-0.079-0.064-0.171-0.134-0.264-0.201l-0.017-0.012c-0.104-0.074-0.195-0.152-0.279-0.238l-0-0c-0.080-0.078-0.13-0.187-0.13-0.307 0-0.001 0-0.002 0-0.004v0c-0.001-0.014-0.001-0.031-0.001-0.048 0-0.285 0.090-0.55 0.242-0.767l-0.003 0.004c0.164-0.223 0.379-0.401 0.629-0.521 0.257-0.124 0.556-0.218 0.869-0.266l0.018-0.002c0.334-0.053 0.673-0.080 1.011-0.079 0.384-0.002 0.768 0.028 1.148 0.091 0.327 0.050 0.647 0.144 0.95 0.279 0.252 0.111 0.476 0.279 0.651 0.492 0.164 0.204 0.25 0.459 0.244 0.72 0.001 0.009 0.001 0.020 0.001 0.031 0 0.15-0.053 0.287-0.142 0.393l0.001-0.001c-0.106 0.115-0.235 0.208-0.379 0.27-0.177 0.080-0.361 0.142-0.549 0.188-0.206 0.053-0.421 0.115-0.644 0.186-0.23 0.073-0.454 0.164-0.671 0.268-0.228 0.112-0.439 0.256-0.625 0.429l-1.599 1.478 3.177 4.033c0.132 0.178 0.289 0.336 0.466 0.469 0.137 0.1 0.283 0.186 0.436 0.26 0.122 0.060 0.249 0.112 0.378 0.155 0.106 0.032 0.208 0.076 0.304 0.13 0.085 0.050 0.153 0.121 0.199 0.206l0.001 0.003c0.055 0.12 0.080 0.251 0.073 0.383 0 0.56-0.309 0.967-0.928 1.22s-1.515 0.38-2.686 0.379c-0.022 0-0.048 0-0.074 0-0.53 0-1.050-0.039-1.559-0.114l0.058 0.007c-0.441-0.061-0.841-0.176-1.213-0.341l0.029 0.011c-0.3-0.129-0.551-0.322-0.743-0.564l-0.003-0.004c-0.163-0.22-0.261-0.497-0.261-0.796 0-0.012 0-0.023 0-0.034l-0 0.002c-0.001-0.007-0.001-0.015-0.001-0.023 0-0.108 0.051-0.204 0.13-0.265l0.001-0.001c0.090-0.068 0.188-0.124 0.292-0.171 0.105-0.048 0.203-0.097 0.292-0.148 0.078-0.042 0.13-0.123 0.13-0.217 0-0.004-0-0.007-0-0.011l0 0c-0.003-0.080-0.027-0.154-0.066-0.218l0.001 0.002c-0.066-0.114-0.133-0.212-0.205-0.304l0.004 0.006-1.303-1.705c-0.049-0.058-0.109-0.105-0.177-0.139l-0.003-0.002c-0.064-0.035-0.139-0.065-0.217-0.086l-0.007-0.002c-0.074-0.020-0.16-0.032-0.249-0.033h-0.413v1.953c-0.009 0.181 0.023 0.362 0.092 0.53 0.050 0.114 0.127 0.213 0.226 0.288 0.089 0.062 0.19 0.107 0.296 0.13s0.204 0.053 0.295 0.083c0.088 0.029 0.164 0.074 0.228 0.131l-0.001-0.001c0.057 0.060 0.092 0.141 0.092 0.23 0 0.011-0.001 0.021-0.001 0.032l0-0.001c0 0.63-0.326 1.086-0.976 1.367s-1.593 0.421-2.825 0.42c-0.024 0-0.052 0-0.080 0-0.531 0-1.054-0.038-1.566-0.11l0.059 0.007c-0.436-0.056-0.831-0.167-1.2-0.328l0.028 0.011c-0.284-0.12-0.533-0.312-0.72-0.558-0.154-0.216-0.246-0.485-0.246-0.776 0-0.012 0-0.024 0-0.036l-0 0.002c-0.001-0.009-0.001-0.019-0.001-0.030 0-0.090 0.035-0.171 0.092-0.231l-0 0c0.063-0.054 0.138-0.095 0.22-0.12l0.004-0.001c0.088-0.028 0.183-0.055 0.287-0.080s0.201-0.070 0.288-0.13c0.096-0.073 0.173-0.168 0.224-0.277 0.068-0.165 0.099-0.343 0.090-0.521v-5.722c0.009-0.178-0.021-0.356-0.090-0.521-0.052-0.113-0.128-0.207-0.222-0.278l-0.002-0.001c-0.082-0.059-0.178-0.104-0.282-0.129l-0.006-0.001c-0.136-0.033-0.232-0.061-0.327-0.090l0.040 0.011c-0.086-0.027-0.161-0.068-0.225-0.122l0.001 0.001c-0.058-0.060-0.093-0.142-0.093-0.232 0-0.010 0-0.020 0.001-0.030l-0 0.001c-0.007-0.289 0.079-0.572 0.247-0.808 0.188-0.242 0.436-0.433 0.72-0.552 0.341-0.15 0.736-0.262 1.15-0.316l0.022-0.002c0.526-0.073 1.056-0.107 1.587-0.102 0.548-0.004 1.094 0.029 1.636 0.102 0.443 0.056 0.846 0.168 1.222 0.33l-0.029-0.011c0.287 0.117 0.537 0.308 0.727 0.552 0.167 0.235 0.254 0.519 0.246 0.808 0.001 0.009 0.001 0.020 0.001 0.031 0 0.089-0.035 0.17-0.091 0.229l0-0c-0.064 0.053-0.14 0.094-0.223 0.12l-0.005 0.001c-0.056 0.019-0.155 0.046-0.255 0.071l-0.041 0.009c-0.107 0.024-0.206 0.068-0.296 0.13-0.098 0.072-0.175 0.166-0.225 0.275l-0.002 0.004c-0.068 0.165-0.1 0.343-0.091 0.521v2.364c0.142 0 0.291-0.008 0.447-0.023 0.154-0.014 0.301-0.073 0.425-0.167l2.596-2.174zM51.073 15.594c-0.522-0.193-1.126-0.304-1.755-0.304-0.026 0-0.052 0-0.078 0.001l0.004-0c-0.007-0-0.014-0-0.022-0-0.555 0-1.093 0.076-1.603 0.217l0.042-0.010c-0.458 0.121-0.896 0.306-1.302 0.55-0.386 0.237-0.717 0.513-1.004 0.83l-0.003 0.004c-0.284 0.316-0.526 0.668-0.718 1.049-0.18 0.345-0.328 0.745-0.426 1.165l-0.007 0.035c-0.090 0.381-0.141 0.819-0.141 1.269s0.051 0.888 0.149 1.308l-0.008-0.039c0.093 0.414 0.235 0.815 0.421 1.196 0.2 0.403 0.435 0.751 0.709 1.063l-0.005-0.006c0.287 0.327 0.62 0.612 0.988 0.843 0.364 0.234 0.785 0.425 1.232 0.554l0.034 0.008c0.504 0.139 1.025 0.206 1.549 0.201 0.022 0 0.048 0 0.074 0 0.542 0 1.067-0.072 1.566-0.207l-0.042 0.010c0.476-0.129 0.893-0.317 1.271-0.56l-0.018 0.011c0.35-0.225 0.661-0.505 0.92-0.829 0.251-0.315 0.452-0.666 0.599-1.042 0.013-0.031 0.024-0.067 0.030-0.104l0-0.003c0.005-0.037 0.008-0.075 0.007-0.113 0-0.001 0-0.003 0-0.004 0-0.121-0.037-0.234-0.099-0.327l0.001 0.002c-0.055-0.089-0.152-0.147-0.262-0.147-0.004 0-0.007 0-0.011 0h0.001c-0.087 0.002-0.168 0.027-0.238 0.069l0.002-0.001c-0.103 0.057-0.227 0.115-0.356 0.166l-0.023 0.008c-0.303 0.13-0.658 0.236-1.027 0.3l-0.029 0.004c-0.169 0.033-0.365 0.053-0.564 0.054h-0.001c-0.012 0-0.026 0-0.040 0-0.319 0-0.629-0.038-0.926-0.109l0.027 0.005c-0.284-0.067-0.531-0.204-0.728-0.391l0.001 0.001c-0.216-0.219-0.379-0.491-0.469-0.794l-0.003-0.014c-0.109-0.366-0.172-0.788-0.172-1.223 0-0.045 0.001-0.090 0.002-0.134l-0 0.007h3.647c0.218 0 0.411-0.009 0.583-0.024 0.159-0.009 0.306-0.050 0.439-0.116l-0.007 0.003c0.117-0.063 0.21-0.159 0.267-0.276l0.002-0.004c0.071-0.168 0.104-0.35 0.095-0.531 0-0.010 0-0.021 0-0.033 0-0.545-0.112-1.063-0.316-1.533l0.010 0.025c-0.211-0.489-0.508-0.905-0.876-1.244l-0.002-0.002c-0.389-0.355-0.85-0.638-1.358-0.824l-0.029-0.009zM49.349 17.34c0.13-0.070 0.285-0.111 0.45-0.111 0.002 0 0.004 0 0.006 0h-0c0.187-0.003 0.373 0.028 0.548 0.091 0.157 0.063 0.293 0.169 0.391 0.307 0.118 0.174 0.201 0.37 0.242 0.576 0.061 0.292 0.089 0.59 0.083 0.889h-2.416c-0.004-0.281 0.025-0.562 0.087-0.836 0.046-0.206 0.128-0.402 0.242-0.581 0.092-0.141 0.219-0.256 0.367-0.336zM59.433 15.29c0.022-0 0.048-0.001 0.074-0.001 0.629 0 1.233 0.111 1.792 0.316l-0.036-0.012c0.537 0.195 0.998 0.478 1.39 0.836l-0.003-0.003c0.378 0.348 0.678 0.773 0.878 1.246 0.206 0.488 0.311 1.012 0.306 1.54 0.009 0.182-0.023 0.363-0.093 0.531-0.058 0.123-0.151 0.222-0.267 0.285l-0.003 0.002c-0.126 0.063-0.273 0.104-0.429 0.114l-0.003 0c-0.165 0.015-0.358 0.024-0.552 0.024-0.011 0-0.022-0-0.033-0h-3.644c-0.001 0.038-0.002 0.083-0.002 0.127 0 0.436 0.063 0.857 0.18 1.255l-0.008-0.031c0.088 0.304 0.251 0.582 0.474 0.807 0.203 0.193 0.454 0.328 0.727 0.391 0.308 0.071 0.623 0.106 0.939 0.102 0.2-0.001 0.396-0.020 0.585-0.056l-0.020 0.003c0.398-0.069 0.753-0.174 1.088-0.316l-0.032 0.012c0.129-0.050 0.256-0.109 0.378-0.175 0.071-0.043 0.153-0.066 0.236-0.068 0.003-0 0.006-0 0.010-0 0.11 0 0.207 0.058 0.261 0.146l0.001 0.001c0.062 0.091 0.1 0.203 0.1 0.324 0 0.002 0 0.004-0 0.006v-0c0 0.038-0.003 0.076-0.008 0.114-0.006 0.040-0.017 0.076-0.032 0.11l0.001-0.003c-0.158 0.398-0.359 0.742-0.605 1.049l0.006-0.008c-0.26 0.325-0.57 0.604-0.92 0.83-0.36 0.233-0.778 0.421-1.222 0.542l-0.031 0.007c-0.457 0.125-0.982 0.197-1.524 0.197-0.026 0-0.052-0-0.078-0l0.004 0c-0.019 0-0.041 0-0.063 0-0.529 0-1.041-0.073-1.526-0.21l0.039 0.010c-0.481-0.136-0.902-0.328-1.285-0.573l0.019 0.011c-0.378-0.241-0.702-0.52-0.983-0.838l-0.004-0.005c-0.269-0.307-0.504-0.654-0.691-1.029l-0.013-0.028c-0.172-0.343-0.317-0.742-0.414-1.159l-0.007-0.037c-0.090-0.381-0.141-0.819-0.141-1.269s0.051-0.888 0.149-1.308l-0.008 0.039c0.104-0.455 0.253-0.855 0.446-1.229l-0.014 0.029c0.192-0.38 0.434-0.732 0.718-1.049 0.291-0.321 0.622-0.597 0.989-0.822l0.020-0.011c0.374-0.229 0.807-0.417 1.266-0.542l0.035-0.008c0.475-0.135 1.020-0.213 1.584-0.213h0zM59.993 17.229c-0.002-0-0.005-0-0.007-0-0.164 0-0.318 0.041-0.452 0.113l0.005-0.003c-0.151 0.081-0.275 0.195-0.366 0.332l-0.002 0.004c-0.108 0.167-0.192 0.361-0.239 0.569l-0.002 0.012c-0.063 0.274-0.092 0.555-0.087 0.836h2.416c0.006-0.299-0.022-0.597-0.083-0.889-0.045-0.219-0.129-0.412-0.245-0.581l0.003 0.005c-0.097-0.137-0.23-0.243-0.385-0.305l-0.006-0.002c-0.155-0.058-0.334-0.091-0.521-0.091-0.009 0-0.019 0-0.028 0l0.001-0zM76.502 21.653c0.046-0.363 0.072-0.783 0.072-1.208 0-0.417-0.025-0.829-0.074-1.233l0.005 0.049c-0.058-0.449-0.15-0.851-0.274-1.238l0.014 0.049c-0.129-0.415-0.289-0.773-0.484-1.109l0.014 0.026c-0.197-0.343-0.439-0.634-0.723-0.88l-0.004-0.004c-0.291-0.248-0.632-0.449-1.004-0.586l-0.023-0.007c-0.383-0.14-0.825-0.221-1.286-0.221-0.024 0-0.049 0-0.073 0.001l0.004-0c-0.313-0.002-0.626 0.020-0.936 0.068-0.295 0.047-0.553 0.109-0.802 0.189l0.038-0.011c-0.421 0.132-0.787 0.322-1.112 0.564l0.010-0.007c-0.168-0.228-0.412-0.392-0.693-0.454l-0.008-0.001c-0.362-0.084-0.778-0.132-1.204-0.132-0.057 0-0.114 0.001-0.171 0.003l0.008-0c-0.023-0-0.050-0-0.077-0-0.478 0-0.948 0.033-1.409 0.096l0.053-0.006c-0.394 0.051-0.752 0.153-1.086 0.301l0.025-0.010c-0.257 0.111-0.481 0.286-0.651 0.508-0.14 0.195-0.224 0.439-0.224 0.703 0 0.012 0 0.025 0.001 0.037l-0-0.002c-0.001 0.009-0.001 0.019-0.001 0.030 0 0.081 0.031 0.155 0.081 0.21l-0-0c0.057 0.050 0.126 0.087 0.201 0.109l0.004 0.001c0.078 0.025 0.166 0.048 0.26 0.068 0.094 0.022 0.182 0.063 0.26 0.119 0.088 0.065 0.158 0.15 0.203 0.248l0.002 0.004c0.060 0.149 0.087 0.309 0.080 0.47v8.297c0.009 0.161-0.019 0.323-0.080 0.473-0.047 0.102-0.116 0.186-0.202 0.249l-0.002 0.001c-0.078 0.055-0.166 0.096-0.26 0.118-0.11 0.024-0.197 0.047-0.283 0.074l0.023-0.006c-0.079 0.022-0.148 0.060-0.205 0.11l0.001-0.001c-0.050 0.055-0.081 0.129-0.081 0.21 0 0.010 0.001 0.021 0.001 0.031l-0-0.001c-0.007 0.264 0.071 0.523 0.224 0.738 0.171 0.222 0.395 0.397 0.651 0.508 0.338 0.147 0.695 0.245 1.061 0.292 0.475 0.064 0.953 0.094 1.432 0.090 1.126 0 1.988-0.127 2.583-0.382s0.892-0.671 0.892-1.246c0.001-0.010 0.002-0.021 0.002-0.033 0-0.081-0.032-0.154-0.085-0.207l0 0c-0.057-0.049-0.125-0.086-0.2-0.109l-0.004-0.001c-0.066-0.022-0.156-0.047-0.247-0.067l-0.021-0.004c-0.103-0.024-0.193-0.066-0.273-0.122l0.002 0.002c-0.087-0.069-0.157-0.156-0.202-0.257l-0.002-0.004c-0.054-0.128-0.085-0.276-0.085-0.432 0-0.020 0.001-0.040 0.002-0.060l-0 0.003v-1.764c0.336 0.189 0.693 0.336 1.065 0.439 0.485 0.13 0.986 0.191 1.488 0.182 0.459 0.009 0.917-0.063 1.352-0.212 0.743-0.263 1.345-0.77 1.723-1.423l0.008-0.015c0.193-0.333 0.348-0.686 0.462-1.054 0.107-0.331 0.193-0.723 0.243-1.127l0.003-0.032zM70.483 23.479c-0.124-0.023-0.233-0.054-0.338-0.095l0.012 0.004 0.023-4.989v-0.576c0-0.177-0.005-0.343-0.016-0.5 0.080-0.031 0.164-0.054 0.25-0.068 0.090-0.016 0.181-0.023 0.273-0.023 0.208-0.006 0.413 0.049 0.59 0.159 0.182 0.134 0.318 0.321 0.391 0.535 0.118 0.324 0.192 0.663 0.22 1.006 0.050 0.523 0.073 1.048 0.068 1.573 0 0.595-0.006 1.088-0.019 1.476-0.003 0.33-0.050 0.648-0.136 0.95l0.006-0.025c-0.046 0.194-0.165 0.363-0.332 0.473-0.202 0.098-0.427 0.143-0.651 0.13-0.115 0-0.229-0.009-0.341-0.030zM82.49 15.29c0.020-0 0.044-0 0.069-0 0.629 0 1.232 0.111 1.79 0.315l-0.036-0.012c0.536 0.195 0.997 0.478 1.388 0.836l-0.003-0.003c0.378 0.348 0.678 0.773 0.879 1.246 0.207 0.487 0.311 1.011 0.307 1.54 0.001 0.018 0.001 0.039 0.001 0.060 0 0.17-0.036 0.332-0.1 0.479l0.003-0.008c-0.055 0.123-0.146 0.221-0.259 0.285l-0.003 0.002c-0.135 0.066-0.282 0.105-0.432 0.114-0.163 0.015-0.353 0.023-0.545 0.023-0.013 0-0.027-0-0.040-0h-3.643c-0.001 0.039-0.002 0.085-0.002 0.132 0 0.432 0.063 0.85 0.179 1.245l-0.008-0.031c0.088 0.304 0.25 0.581 0.472 0.807 0.203 0.193 0.455 0.328 0.728 0.391 0.307 0.071 0.623 0.106 0.939 0.102 0.189-0.001 0.378-0.019 0.565-0.053 0.223-0.038 0.411-0.084 0.596-0.139l-0.035 0.009c0.179-0.057 0.345-0.115 0.496-0.175 0.13-0.050 0.257-0.109 0.379-0.174 0.071-0.043 0.151-0.066 0.235-0.068 0.002-0 0.005-0 0.008-0 0.111 0 0.209 0.058 0.264 0.146l0.001 0.001c0.061 0.092 0.098 0.204 0.098 0.326 0 0.001 0 0.003 0 0.004v-0c-0.001 0.041-0.003 0.080-0.008 0.119l0.001-0.006c-0.006 0.040-0.017 0.076-0.032 0.109l0.001-0.002c-0.156 0.398-0.358 0.742-0.603 1.049l0.006-0.008c-0.26 0.324-0.571 0.604-0.92 0.829-0.361 0.233-0.778 0.421-1.223 0.542l-0.031 0.007c-0.456 0.125-0.981 0.197-1.521 0.197-0.027 0-0.054-0-0.081-0.001l0.004 0c-0.018 0-0.040 0-0.062 0-0.529 0-1.041-0.073-1.526-0.21l0.039 0.010c-0.481-0.136-0.902-0.328-1.285-0.573l0.019 0.012c-0.378-0.241-0.702-0.52-0.983-0.838l-0.004-0.005c-0.27-0.307-0.504-0.654-0.692-1.029l-0.013-0.028c-0.173-0.343-0.317-0.742-0.413-1.16l-0.007-0.036c-0.091-0.381-0.142-0.819-0.142-1.269s0.052-0.888 0.15-1.308l-0.008 0.039c0.104-0.455 0.253-0.856 0.445-1.23l-0.014 0.029c0.205-0.4 0.445-0.745 0.724-1.054l-0.004 0.004c0.291-0.321 0.622-0.597 0.989-0.822l0.020-0.011c0.374-0.229 0.807-0.417 1.266-0.542l0.035-0.008c0.468-0.131 1.005-0.207 1.56-0.207 0.009 0 0.018 0 0.026 0h-0.001zM83.050 17.229c-0.002 0-0.004-0-0.006-0-0.164 0-0.319 0.041-0.454 0.113l0.005-0.003c-0.15 0.081-0.274 0.195-0.365 0.332l-0.002 0.004c-0.115 0.178-0.197 0.374-0.243 0.581-0.063 0.274-0.092 0.555-0.087 0.836h2.417c0.005-0.299-0.023-0.597-0.084-0.889-0.045-0.219-0.129-0.412-0.245-0.581l0.003 0.005c-0.1-0.137-0.235-0.243-0.392-0.305l-0.006-0.002c-0.155-0.058-0.333-0.091-0.52-0.091-0.008 0-0.015 0-0.023 0h0.001zM93.155 22.895c-0.054-0.128-0.085-0.278-0.085-0.434 0-0.017 0-0.035 0.001-0.052l-0 0.002 0.016-4.051c0-0.013 0-0.029 0-0.044 0-0.169-0.020-0.333-0.057-0.491l0.003 0.014c-0.029-0.103-0.048-0.222-0.052-0.345l-0-0.002c-0-0.003-0-0.006-0-0.010 0-0.029 0.006-0.057 0.018-0.082l-0.001 0.001c0.014-0.029 0.034-0.052 0.058-0.071l0-0c0.074-0.038 0.162-0.060 0.254-0.060 0.020 0 0.039 0.001 0.058 0.003l-0.002-0c0.010-0.001 0.021-0.001 0.033-0.001 0.125 0 0.238 0.050 0.32 0.131l-0-0c0.080 0.090 0.144 0.195 0.187 0.311l0.002 0.007v0.001c0.042 0.126 0.087 0.263 0.13 0.411s0.109 0.289 0.201 0.414c0.103 0.135 0.237 0.245 0.39 0.318 0.216 0.097 0.452 0.141 0.688 0.13 0.269 0.006 0.535-0.046 0.781-0.152 0.213-0.092 0.403-0.228 0.56-0.398 0.149-0.164 0.263-0.356 0.338-0.563 0.072-0.194 0.113-0.418 0.113-0.651v0c0.001-0.017 0.001-0.038 0.001-0.058 0-0.29-0.072-0.563-0.198-0.802l0.004 0.009c-0.129-0.229-0.305-0.418-0.515-0.558l-0.006-0.004c-0.213-0.141-0.463-0.248-0.731-0.307l-0.014-0.003c-0.265-0.060-0.569-0.095-0.881-0.095-0.233 0-0.462 0.019-0.684 0.057l0.024-0.003c-0.393 0.068-0.744 0.197-1.063 0.376l0.016-0.009c-0.151 0.082-0.297 0.169-0.439 0.26-0.189-0.201-0.428-0.352-0.697-0.434l-0.011-0.003c-0.322-0.095-0.692-0.149-1.075-0.149-0.044 0-0.088 0.001-0.131 0.002l0.006-0c-0.484-0.004-0.967 0.026-1.446 0.090-0.394 0.051-0.752 0.153-1.086 0.301l0.025-0.010c-0.263 0.116-0.482 0.289-0.649 0.504l-0.003 0.004c-0.14 0.196-0.224 0.441-0.224 0.705 0 0.012 0 0.023 0.001 0.035l-0-0.002c-0.001 0.009-0.001 0.019-0.001 0.029 0 0.082 0.032 0.156 0.085 0.211l-0-0c0.060 0.050 0.129 0.087 0.204 0.11 0.075 0.025 0.164 0.048 0.26 0.068 0.207 0.047 0.376 0.184 0.463 0.367l0.002 0.004c0.062 0.149 0.090 0.309 0.083 0.469v4.045c0.008 0.162-0.021 0.324-0.083 0.474-0.049 0.1-0.118 0.184-0.202 0.249l-0.002 0.001c-0.078 0.056-0.167 0.096-0.261 0.117-0.11 0.024-0.197 0.047-0.283 0.074l0.022-0.006c-0.079 0.024-0.147 0.061-0.205 0.11l0.001-0.001c-0.052 0.055-0.085 0.129-0.085 0.211 0 0.010 0.001 0.020 0.001 0.030l-0-0.001c-0.007 0.264 0.071 0.523 0.223 0.738 0.171 0.222 0.395 0.397 0.651 0.508 0.338 0.148 0.695 0.246 1.061 0.292 0.479 0.064 0.963 0.095 1.446 0.092 1.127 0 1.988-0.128 2.583-0.383s0.893-0.671 0.893-1.246c0.001-0.009 0.001-0.018 0.001-0.029 0-0.082-0.032-0.156-0.085-0.211l0 0c-0.058-0.049-0.128-0.086-0.204-0.108l-0.004-0.001c-0.056-0.018-0.146-0.043-0.237-0.065l-0.032-0.007c-0.103-0.026-0.193-0.067-0.272-0.123l0.003 0.002c-0.090-0.067-0.16-0.155-0.206-0.257l-0.002-0.004z"></path>
<path fill="#fff" style="fill: var(--color4, #fff)" d="M10.932 26.597v-0.418c-0.147-0.049-0.316-0.080-0.492-0.086l-0.003-0c-0.006-0-0.013-0-0.020-0-0.132 0-0.256 0.034-0.364 0.095l0.004-0.002c-0.098 0.057-0.175 0.141-0.221 0.243l-0.001 0.003c-0.043 0.129-0.067 0.278-0.067 0.433 0 0.027 0.001 0.054 0.002 0.080l-0-0.004v0.521h-0.436v0.368h0.436v2.952h0.427v-2.951h0.693v-0.369h-0.693v-0.449c-0.001-0.024-0.002-0.051-0.002-0.079 0-0.095 0.008-0.189 0.025-0.279l-0.001 0.010c0.020-0.050 0.056-0.091 0.102-0.115l0.001-0.001c0.055-0.032 0.122-0.051 0.193-0.051 0.006 0 0.011 0 0.017 0l-0.001-0c0.139 0.007 0.276 0.041 0.402 0.1zM7.799 26.179h0.427v4.602h-0.427v-4.602zM1.872 28.108l0.273-0.284c-0.311-0.299-0.617-0.449-0.919-0.462-0.008-0-0.017-0-0.026-0-0.242 0-0.463 0.096-0.625 0.251l0-0c-0.161 0.153-0.261 0.369-0.261 0.608 0 0.007 0 0.015 0 0.022l-0-0.001c-0.004 0.187 0.053 0.37 0.161 0.521 0.167 0.196 0.376 0.353 0.612 0.458 0.199 0.087 0.381 0.206 0.539 0.354 0.074 0.088 0.119 0.202 0.119 0.327 0 0.156-0.070 0.296-0.181 0.389l-0.001 0.001c-0.111 0.103-0.26 0.166-0.424 0.166-0.004 0-0.008-0-0.013-0h0.001c-0.245 0-0.476-0.124-0.695-0.37l-0.268 0.304c0.115 0.147 0.263 0.266 0.432 0.345 0.171 0.085 0.359 0.129 0.55 0.13 0.009 0 0.019 0 0.029 0 0.269 0 0.512-0.109 0.689-0.284l-0 0c0.177-0.171 0.287-0.41 0.287-0.675 0-0.006-0-0.012-0-0.019v0.001c0.002-0.187-0.057-0.37-0.168-0.521-0.178-0.2-0.394-0.361-0.639-0.472l-0.012-0.005c-0.2-0.089-0.37-0.208-0.515-0.352l0 0c-0.073-0.081-0.119-0.189-0.122-0.307v-0.001c0.001-0.128 0.058-0.242 0.148-0.32l0.001-0c0.090-0.085 0.212-0.138 0.346-0.138 0.004 0 0.008 0 0.011 0h-0.001c0.218 0 0.441 0.11 0.671 0.333zM6.508 29.869l-0.361-0.189c-0.101 0.18-0.222 0.335-0.362 0.469l-0.001 0.001c-0.243 0.201-0.558 0.322-0.901 0.323h-0c-0.007 0-0.016 0-0.025 0-0.338 0-0.643-0.142-0.858-0.369l-0.001-0.001c-0.229-0.242-0.37-0.569-0.37-0.929 0-0.007 0-0.014 0-0.021v0.001h2.996c0-0.014 0.001-0.031 0.001-0.047 0-0.41-0.138-0.789-0.369-1.091l0.003 0.004c-0.302-0.394-0.773-0.645-1.303-0.645-0.019 0-0.038 0-0.057 0.001l0.003-0c-0.015-0.001-0.033-0.001-0.051-0.001-0.515 0-0.972 0.245-1.262 0.626l-0.003 0.004c-0.244 0.301-0.391 0.688-0.391 1.11 0 0.006 0 0.011 0 0.017v-0.001c0 0.001 0 0.003 0 0.005 0 0.461 0.174 0.882 0.46 1.199l-0.001-0.002c0.306 0.356 0.729 0.533 1.271 0.533 0.222 0.003 0.442-0.035 0.651-0.111 0.193-0.074 0.37-0.185 0.521-0.326 0.169-0.161 0.308-0.351 0.41-0.562zM5.899 28.239c0.121 0.162 0.205 0.348 0.249 0.547l-2.478 0.004c0.064-0.261 0.199-0.498 0.391-0.686 0.228-0.212 0.529-0.327 0.841-0.324 0.196 0.001 0.389 0.046 0.565 0.13 0.168 0.075 0.316 0.188 0.432 0.33zM14.157 26.179h0.427v1.877c0.152-0.209 0.347-0.384 0.572-0.512 0.206-0.112 0.438-0.171 0.673-0.169 0.235-0.005 0.464 0.061 0.661 0.188 0.19 0.123 0.338 0.301 0.426 0.509 0.107 0.321 0.154 0.66 0.137 0.998v1.709h-0.427v-1.584c0.009-0.256-0.007-0.512-0.046-0.765-0.039-0.2-0.142-0.371-0.286-0.495l-0.001-0.001c-0.14-0.105-0.317-0.167-0.509-0.167-0.014 0-0.028 0-0.042 0.001l0.002-0c-0.256 0-0.502 0.092-0.694 0.26-0.199 0.164-0.341 0.385-0.405 0.635-0.051 0.299-0.071 0.602-0.061 0.904v1.217h-0.427v-4.607zM20.687 27.512c-0.193-0.087-0.419-0.137-0.657-0.137-0.014 0-0.028 0-0.042 0.001l0.002-0c-0.012-0-0.026-0-0.041-0-0.491 0-0.932 0.215-1.233 0.557l-0.002 0.002c-0.284 0.314-0.458 0.733-0.458 1.192 0 0.473 0.184 0.903 0.485 1.222l-0.001-0.001c0.318 0.321 0.76 0.519 1.247 0.519s0.929-0.199 1.247-0.519l0-0c0.3-0.318 0.484-0.748 0.484-1.222 0-0.46-0.174-0.879-0.46-1.195l0.001 0.002c-0.156-0.177-0.348-0.318-0.564-0.415l-0.010-0.004zM19.493 27.893c0.156-0.068 0.326-0.102 0.496-0.1 0.002 0 0.004-0 0.007-0 0.355 0 0.676 0.15 0.901 0.39l0.001 0.001c0.242 0.239 0.391 0.57 0.391 0.936 0 0.006-0 0.012-0 0.018v-0.001c0.001 0.235-0.059 0.466-0.175 0.671-0.112 0.202-0.272 0.366-0.466 0.478l-0.006 0.003c-0.188 0.106-0.412 0.168-0.651 0.168s-0.463-0.062-0.657-0.172l0.007 0.003c-0.199-0.114-0.363-0.28-0.471-0.481-0.11-0.19-0.175-0.419-0.175-0.662 0-0.003 0-0.006 0-0.009v0c-0-0.007-0-0.015-0-0.023 0-0.363 0.146-0.691 0.384-0.93l-0 0c0.117-0.125 0.257-0.224 0.415-0.292zM24.63 27.824l-0.272 0.279c-0.229-0.223-0.452-0.334-0.671-0.334-0.003-0-0.006-0-0.009-0-0.134 0-0.257 0.053-0.347 0.138l0-0c-0.089 0.078-0.144 0.192-0.144 0.318 0 0.003 0 0.005 0 0.008v-0c0.003 0.114 0.046 0.223 0.122 0.307 0.148 0.148 0.322 0.267 0.514 0.352 0.249 0.11 0.471 0.272 0.651 0.476 0.111 0.151 0.171 0.334 0.169 0.521 0 0.001 0 0.002 0 0.003 0 0.27-0.114 0.513-0.297 0.684l-0.001 0c-0.177 0.176-0.42 0.284-0.689 0.284-0.010 0-0.020-0-0.030-0l0.001 0c-0.2-0.001-0.389-0.049-0.557-0.133l0.007 0.003c-0.173-0.083-0.317-0.199-0.43-0.342l-0.002-0.003 0.268-0.305c0.218 0.247 0.45 0.37 0.695 0.37 0.003 0 0.007 0 0.010 0 0.242 0 0.453-0.137 0.559-0.337l0.002-0.003c0.030-0.063 0.047-0.136 0.047-0.213 0-0.125-0.045-0.239-0.119-0.328l0.001 0.001c-0.153-0.143-0.331-0.262-0.527-0.349l-0.012-0.005c-0.242-0.11-0.446-0.265-0.609-0.456l-0.002-0.002c-0.102-0.14-0.163-0.315-0.163-0.504 0-0.006 0-0.011 0-0.017v0.001c-0-0.006-0-0.014-0-0.021 0-0.239 0.1-0.455 0.26-0.608l0-0c0.162-0.155 0.382-0.25 0.624-0.25 0.010 0 0.019 0 0.029 0l-0.001-0c0.304 0.018 0.613 0.168 0.923 0.467zM26.637 26.229h-0.429v1.232h-0.582v0.369h0.582v2.951h0.429v-2.951h0.677v-0.369h-0.677v-1.232zM31.2 29.68l0.359 0.189c-0.107 0.218-0.244 0.403-0.408 0.56l-0.001 0.001c-0.146 0.136-0.319 0.247-0.51 0.322l-0.011 0.004c-0.21 0.077-0.434 0.114-0.658 0.11-0.542 0-0.965-0.178-1.271-0.533-0.284-0.317-0.458-0.737-0.458-1.199 0-0.001 0-0.003 0-0.004v0c-0-0.004-0-0.009-0-0.014 0-0.422 0.147-0.81 0.393-1.115l-0.003 0.003c0.292-0.384 0.75-0.629 1.265-0.629 0.018 0 0.036 0 0.054 0.001l-0.003-0c0.016-0.001 0.035-0.001 0.055-0.001 0.53 0 1.001 0.251 1.3 0.641l0.003 0.004c0.247 0.325 0.377 0.725 0.367 1.134h-2.994c-0 0.006-0 0.013-0 0.020 0 0.36 0.141 0.687 0.37 0.929l-0.001-0.001c0.216 0.228 0.52 0.37 0.858 0.37 0.009 0 0.017-0 0.025-0l-0.001 0c0.169 0 0.336-0.030 0.494-0.088 0.149-0.053 0.287-0.132 0.407-0.235 0.145-0.137 0.269-0.296 0.368-0.469zM31.2 28.785c-0.047-0.209-0.134-0.392-0.253-0.55l0.003 0.004c-0.115-0.14-0.26-0.252-0.425-0.327l-0.007-0.003c-0.165-0.081-0.359-0.129-0.564-0.13h-0c-0.007-0-0.015-0-0.022-0-0.315 0-0.602 0.12-0.818 0.316l0.001-0.001c-0.188 0.182-0.325 0.415-0.389 0.677l-0.002 0.010 2.478 0.006zM36.229 30.781v-4.602h-0.414v1.892c-0.151-0.216-0.346-0.392-0.573-0.516l-0.009-0.004c-0.208-0.11-0.455-0.174-0.717-0.174-0.008 0-0.016 0-0.023 0h0.001c-0.006-0-0.014-0-0.022-0-0.468 0-0.89 0.195-1.19 0.509l-0.001 0.001c-0.31 0.307-0.502 0.733-0.502 1.203 0 0.009 0 0.017 0 0.025v-0.001c-0 0.011-0 0.024-0 0.037 0 0.471 0.19 0.897 0.498 1.207l-0-0c0.308 0.314 0.736 0.509 1.21 0.509 0.263 0 0.513-0.060 0.735-0.167l-0.010 0.004c0.235-0.119 0.439-0.287 0.603-0.492v0.571h0.414zM33.864 27.962c0.199-0.117 0.427-0.178 0.658-0.176 0.007-0 0.016-0 0.024-0 0.357 0 0.679 0.149 0.908 0.388l0 0c0.235 0.238 0.381 0.566 0.381 0.927 0 0.013-0 0.025-0.001 0.038l0-0.002c0.003 0.238-0.055 0.471-0.169 0.68-0.114 0.201-0.281 0.366-0.484 0.477-0.191 0.112-0.42 0.178-0.664 0.178-0 0-0 0-0.001 0h0c-0.487-0.003-0.91-0.273-1.131-0.67l-0.003-0.007c-0.113-0.192-0.18-0.424-0.18-0.671s0.067-0.478 0.183-0.677l-0.003 0.006c0.115-0.206 0.278-0.373 0.475-0.489l0.006-0.003zM39.824 26.179h0.427v2.623l1.539-1.34h0.628l-1.823 1.583 1.931 1.737h-0.602l-1.672-1.494v1.494h-0.427l-0.001-4.602zM46.57 29.869l-0.361-0.189c-0.1 0.18-0.22 0.335-0.36 0.469l-0.001 0.001c-0.121 0.102-0.258 0.182-0.407 0.235-0.147 0.056-0.316 0.088-0.493 0.088h-0c-0.007 0-0.016 0-0.024 0-0.338 0-0.644-0.142-0.859-0.369l-0.001-0.001c-0.229-0.243-0.37-0.571-0.37-0.932 0-0.006 0-0.012 0-0.018v0.001h2.995c0-0.014 0.001-0.031 0.001-0.047 0-0.41-0.138-0.789-0.369-1.091l0.003 0.004c-0.303-0.394-0.774-0.645-1.303-0.645-0.019 0-0.038 0-0.056 0.001l0.003-0c-0.015-0.001-0.033-0.001-0.051-0.001-0.515 0-0.972 0.245-1.262 0.626l-0.003 0.004c-0.244 0.301-0.391 0.688-0.391 1.11 0 0.006 0 0.011 0 0.017v-0.001c0 0.001 0 0.003 0 0.005 0 0.461 0.174 0.882 0.46 1.199l-0.001-0.002c0.306 0.356 0.729 0.533 1.271 0.533 0.222 0.003 0.442-0.036 0.651-0.111 0.192-0.075 0.37-0.185 0.521-0.326 0.169-0.161 0.308-0.351 0.41-0.562zM45.961 28.239c0.121 0.162 0.206 0.348 0.249 0.547l-2.478 0.004c0.064-0.261 0.199-0.498 0.391-0.686 0.228-0.212 0.529-0.327 0.841-0.324 0.196 0.001 0.389 0.046 0.565 0.13 0.167 0.075 0.315 0.188 0.432 0.33zM50.721 29.68l0.361 0.189c-0.102 0.21-0.242 0.4-0.41 0.561-0.146 0.137-0.319 0.247-0.51 0.322l-0.011 0.004c-0.208 0.076-0.429 0.114-0.651 0.11-0.541 0-0.965-0.178-1.271-0.533-0.284-0.316-0.458-0.736-0.458-1.197 0-0.002 0-0.004 0-0.006v0c-0-0.005-0-0.011-0-0.017 0-0.421 0.147-0.809 0.393-1.113l-0.003 0.003c0.293-0.384 0.75-0.629 1.265-0.629 0.018 0 0.036 0 0.054 0.001l-0.003-0c0.016-0.001 0.035-0.001 0.053-0.001 0.53 0 1.001 0.251 1.3 0.641l0.003 0.004c0.247 0.326 0.377 0.725 0.365 1.134h-2.996c-0.006 0.352 0.127 0.693 0.37 0.949 0.216 0.228 0.52 0.37 0.858 0.37 0.009 0 0.017-0 0.026-0l-0.001 0c0.343-0 0.658-0.122 0.903-0.325l-0.002 0.002c0.144-0.137 0.266-0.296 0.363-0.469zM50.721 28.785c-0.043-0.198-0.128-0.384-0.249-0.546-0.116-0.14-0.26-0.252-0.425-0.327l-0.007-0.003c-0.165-0.081-0.36-0.129-0.565-0.13h-0c-0.31-0.006-0.611 0.107-0.841 0.315-0.192 0.188-0.327 0.425-0.391 0.686l2.478 0.006zM52.871 27.461h-0.428v4.539h0.427v-1.785c0.164 0.205 0.368 0.373 0.6 0.492 0.211 0.103 0.46 0.163 0.722 0.163 0.476 0 0.905-0.197 1.211-0.514l0-0c0.308-0.31 0.498-0.737 0.498-1.209 0-0.012-0-0.024-0-0.036l0 0.002c0-0.008 0-0.018 0-0.027 0-0.47-0.193-0.895-0.503-1.201l-0-0c-0.299-0.314-0.721-0.509-1.188-0.509-0.007 0-0.015 0-0.022 0h0.001c-0.256-0.004-0.509 0.057-0.736 0.174-0.235 0.13-0.43 0.305-0.579 0.515l-0.004 0.005v-0.609zM53.645 27.884c0.161-0.068 0.334-0.1 0.508-0.097l0.003 0.003c0.002 0 0.005-0 0.008-0 0.484 0 0.905 0.267 1.125 0.661l0.003 0.007c0.113 0.192 0.179 0.424 0.179 0.671s-0.066 0.478-0.182 0.677l0.003-0.006c-0.224 0.404-0.647 0.674-1.134 0.677h-0c-0.245-0-0.474-0.066-0.671-0.181l0.006 0.003c-0.204-0.113-0.369-0.275-0.48-0.471l-0.003-0.006c-0.107-0.19-0.169-0.417-0.169-0.658 0-0.008 0-0.015 0-0.023v0.001c-0-0.011-0.001-0.024-0.001-0.037 0-0.361 0.145-0.689 0.38-0.927l-0 0c0.12-0.126 0.265-0.226 0.426-0.293zM59.945 29.68l0.361 0.189c-0.102 0.21-0.242 0.4-0.41 0.561-0.146 0.137-0.319 0.247-0.51 0.322l-0.011 0.004c-0.209 0.076-0.429 0.114-0.651 0.11-0.542 0-0.965-0.178-1.271-0.533-0.284-0.316-0.458-0.736-0.458-1.197 0-0.002 0-0.004 0-0.006v0c-0-0.005-0-0.011-0-0.017 0-0.421 0.147-0.809 0.393-1.113l-0.003 0.003c0.293-0.384 0.75-0.629 1.265-0.629 0.018 0 0.036 0 0.053 0.001l-0.003-0c0.016-0.001 0.035-0.001 0.054-0.001 0.53 0 1.001 0.251 1.3 0.641l0.003 0.004c0.247 0.326 0.377 0.725 0.365 1.134h-2.996c-0 0.006-0 0.014-0 0.021 0 0.359 0.14 0.686 0.369 0.928l-0.001-0.001c0.216 0.228 0.521 0.37 0.86 0.37 0.009 0 0.018-0 0.026-0l-0.001 0c0.343-0.001 0.658-0.123 0.903-0.325l-0.002 0.002c0.144-0.137 0.266-0.296 0.363-0.469zM59.945 28.785c-0.043-0.198-0.128-0.384-0.249-0.546-0.116-0.14-0.26-0.251-0.425-0.327l-0.007-0.003c-0.165-0.081-0.36-0.129-0.565-0.13h-0c-0.004-0-0.009-0-0.013-0-0.32 0-0.611 0.123-0.829 0.325l0.001-0.001c-0.192 0.188-0.327 0.425-0.39 0.686l2.477-0.004zM61.936 27.462h-0.436v3.314h0.436v-1.124c-0.003-0.063-0.004-0.137-0.004-0.211 0-0.331 0.031-0.655 0.089-0.969l-0.005 0.033c0.046-0.206 0.151-0.395 0.301-0.544 0.107-0.105 0.251-0.171 0.411-0.176l0.001-0c0.078 0.005 0.155 0.024 0.226 0.057l0.223-0.353c-0.108-0.067-0.237-0.108-0.376-0.114l-0.001-0c-0.169 0.001-0.326 0.054-0.455 0.144l0.003-0.002c-0.164 0.114-0.304 0.26-0.412 0.429v-0.484z"></path>
</symbol>
</defs>
</svg>
